<?xml version="1.0" encoding="utf-8"?>
<!-- Generator: Adobe Illustrator 21.0.0, SVG Export Plug-In . SVG Version: 6.00 Build 0)  -->
<svg version="1.1" id="Calque_1" xmlns="http://www.w3.org/2000/svg" xmlns:xlink="http://www.w3.org/1999/xlink" x="0px" y="0px"
	 viewBox="0 0 1290 794" style="enable-background:new 0 0 1290 794;" xml:space="preserve">
<style type="text/css">
	.st0{fill:#FFF2CC;}
	.st1{fill:#D5E8D4;}
	.st2{fill:#D9DEFC;}
	.st3{fill:none;stroke:#6C8EBF;stroke-miterlimit:10;}
	.st4{fill:none;stroke:#D6B656;stroke-miterlimit:10;}
	.st5{fill:none;stroke:#82B366;stroke-miterlimit:10;}
	.st6{fill:#FFF2CC;stroke:#000000;}
	.st7{fill:#D5E8D4;stroke:#82B366;}
	.st8{fill:#D9DEFC;stroke:#000000;}
	.st9{fill:#D9DEFC;stroke:#2A53E8;}
</style>
<g>
	<g>
		<path pointer-events="all" class="st0" d="M361.6,123.7h537.8c34.8,0,63,36.5,63,81.6v380.8c0,45.1-28.2,81.6-63,81.6H361.6
			c-34.8,0-63-36.5-63-81.6V205.3C298.6,160.3,326.8,123.7,361.6,123.7z"/>
		<path pointer-events="all" class="st1" d="M1036.3,123.7h91.7c10.8,0,19.6,10,19.6,22.4v499.2c0,12.4-8.8,22.4-19.6,22.4h-91.7
			c-10.8,0-19.6-10-19.6-22.4V146.1C1016.6,133.7,1025.4,123.7,1036.3,123.7z"/>
		<path pointer-events="all" class="st2" d="M141.3,123.7h84.9c10,0,18.2,8.2,18.2,18.4v507.1c0,10.2-8.1,18.4-18.2,18.4h-84.9
			c-10,0-18.2-8.2-18.2-18.4V142.1C123.1,132,131.3,123.7,141.3,123.7z"/>
		<path pointer-events="stroke" class="st3" d="M230.9,213.7h181"/>
		<path pointer-events="stroke" class="st3" d="M230.9,393.5h181"/>
		<path pointer-events="stroke" class="st3" d="M230.9,573.4h181"/>
		<path pointer-events="stroke" class="st4" d="M474.7,213.7h194.6"/>
		<path pointer-events="stroke" class="st4" d="M474.7,392.4h194.6"/>
		<path pointer-events="stroke" class="st4" d="M474.7,572.3h194.6"/>
		<g>
			<path pointer-events="stroke" class="st5" d="M732.1,213.7l333.7,320.1"/>
			<path pointer-events="stroke" class="st5" d="M732.1,213.7l318.5,153.2"/>
			<path pointer-events="stroke" class="st5" d="M732.1,213.7h318.1"/>
			<path pointer-events="stroke" class="st5" d="M732.1,393.5l318.5,153.2"/>
			<path pointer-events="stroke" class="st5" d="M732.1,393.5h318.1"/>
			<path pointer-events="stroke" class="st5" d="M732.1,393.5l318.5-153.2"/>
			<path pointer-events="stroke" class="st5" d="M732.1,573.4l333.7-320.1"/>
			<path pointer-events="stroke" class="st5" d="M732.1,573.4l318.5-153.2"/>
			<path pointer-events="stroke" class="st5" d="M732.1,573.4h318.1"/>
		</g>
	</g>
	<g>
		<g>
			<ellipse pointer-events="all" class="st6" cx="711.9" cy="212.5" rx="45" ry="45"/>
			<ellipse pointer-events="all" class="st6" cx="711.9" cy="392.4" rx="45" ry="45"/>
			<ellipse pointer-events="all" class="st6" cx="711.9" cy="572.3" rx="45" ry="45"/>
		</g>
		<g>
			<ellipse pointer-events="all" class="st7" cx="1087.2" cy="213.7" rx="45" ry="45"/>
			<ellipse pointer-events="all" class="st7" cx="1087.2" cy="393.5" rx="45" ry="45"/>
			<ellipse pointer-events="all" class="st7" cx="1087.2" cy="573.4" rx="45" ry="45"/>
		</g>
		<g>
			<ellipse pointer-events="all" class="st8" cx="429.7" cy="212.5" rx="45" ry="45"/>
			<ellipse pointer-events="all" class="st8" cx="429.7" cy="392.4" rx="45" ry="45"/>
			<ellipse pointer-events="all" class="st8" cx="429.7" cy="572.3" rx="45" ry="45"/>
		</g>
		<g>
			<ellipse pointer-events="all" class="st9" cx="183.8" cy="215.8" rx="45" ry="45"/>
			<ellipse pointer-events="all" class="st9" cx="183.8" cy="395.7" rx="45" ry="45"/>
			<ellipse pointer-events="all" class="st9" cx="183.8" cy="575.6" rx="45" ry="45"/>
		</g>
	</g>
</g>
</svg>
